<svg width="63" height="63" viewBox="0 0 63 63" fill="none" xmlns="http://www.w3.org/2000/svg">
<path d="M47.25 47.25C55.9485 38.5515 55.9485 24.4485 47.25 15.75C38.5515 7.05152 24.4485 7.05152 15.75 15.75C7.05151 24.4485 7.05151 38.5515 15.75 47.25C24.4485 55.9485 38.5515 55.9485 47.25 47.25Z" stroke="#E9FCFF" stroke-width="1.38962" stroke-miterlimit="10"/>
<path d="M10.5366 47.5892V17.2978C10.5366 16.752 11.1511 16.4312 11.599 16.7416L33.4166 31.8873C33.8041 32.156 33.8041 32.7289 33.4166 32.9997L11.599 48.1454C11.1511 48.4579 10.5366 48.135 10.5366 47.5892Z" stroke="url(#paint0_linear_31_19267)" stroke-width="6.99574" stroke-miterlimit="10" stroke-linecap="round"/>
<path d="M18.1915 27.488C20.1641 27.488 21.7285 28.4983 21.7285 30.6938C21.7285 32.8893 20.1621 34.035 18.1915 34.035H16.8854V37.6595H14.1733V27.4901H18.1915V27.488Z" fill="#E9FCFF"/>
<path d="M25.2053 27.4878V35.2783H28.484V37.6572H22.4932V27.4878H25.2053Z" fill="#E9FCFF"/>
<path d="M35.3142 27.4878L39.4553 37.6572H36.5328L35.9162 35.9678H32.1939L31.5773 37.6572H28.6548L32.7959 27.4878H35.3101H35.3142ZM34.9143 33.3578L34.2144 31.5747C34.1582 31.431 33.954 31.431 33.8978 31.5747L33.1979 33.3578C33.1541 33.4682 33.2354 33.589 33.3562 33.589H34.756C34.8747 33.589 34.958 33.4682 34.9143 33.3578Z" fill="#E9FCFF"/>
<path d="M40.9491 27.4878L42.8592 30.3103L44.7694 27.4878H48.0355L44.2132 33.0474V37.6572H41.5011V33.0474L37.6787 27.4878H40.9449H40.9491Z" fill="#E9FCFF"/>
<path d="M16.894 31.9314V29.7046C16.894 29.613 16.9982 29.5588 17.0732 29.6109L18.6771 30.7232C18.7417 30.769 18.7417 30.8649 18.6771 30.9107L17.0732 32.023C16.9982 32.0751 16.894 32.023 16.894 31.9293V31.9314Z" fill="#232323"/>
<defs>
<linearGradient id="paint0_linear_31_19267" x1="2.23416" y1="20.1282" x2="26.863" y2="44.757" gradientUnits="userSpaceOnUse">
<stop stop-color="#007EF8"/>
<stop offset="1" stop-color="#FF4A9A"/>
</linearGradient>
</defs>
</svg>
