<svg width="100" height="49" viewBox="0 0 100 49" fill="none" xmlns="http://www.w3.org/2000/svg">
<rect x="5" y="5" width="95" height="44" fill="#38333F"/>
<rect width="95" height="44" fill="#AE7AFF"/>
<path d="M25.4716 19.5625C25.4186 19.0663 25.1951 18.6799 24.8011 18.4034C24.411 18.1269 23.9034 17.9886 23.2784 17.9886C22.839 17.9886 22.4621 18.0549 22.1477 18.1875C21.8333 18.3201 21.5928 18.5 21.4261 18.7273C21.2595 18.9545 21.1742 19.214 21.1705 19.5057C21.1705 19.7481 21.2254 19.9583 21.3352 20.1364C21.4489 20.3144 21.6023 20.4659 21.7955 20.5909C21.9886 20.7121 22.2027 20.8144 22.4375 20.8977C22.6723 20.9811 22.9091 21.0511 23.1477 21.108L24.2386 21.3807C24.678 21.483 25.1004 21.6212 25.5057 21.7955C25.9148 21.9697 26.2803 22.1894 26.6023 22.4545C26.928 22.7197 27.1856 23.0398 27.375 23.4148C27.5644 23.7898 27.6591 24.2292 27.6591 24.733C27.6591 25.4148 27.4848 26.0152 27.1364 26.5341C26.7879 27.0492 26.2841 27.4527 25.625 27.7443C24.9697 28.0322 24.1761 28.1761 23.2443 28.1761C22.339 28.1761 21.553 28.036 20.8864 27.7557C20.2235 27.4754 19.7045 27.0663 19.3295 26.5284C18.9583 25.9905 18.7576 25.3352 18.7273 24.5625H20.8011C20.8314 24.9678 20.9564 25.3049 21.1761 25.5739C21.3958 25.8428 21.6818 26.0436 22.0341 26.1761C22.3902 26.3087 22.7879 26.375 23.2273 26.375C23.6856 26.375 24.0871 26.3068 24.4318 26.1705C24.7803 26.0303 25.053 25.8371 25.25 25.5909C25.447 25.3409 25.5473 25.0492 25.5511 24.7159C25.5473 24.4129 25.4583 24.1629 25.2841 23.9659C25.1098 23.7652 24.8655 23.5985 24.5511 23.4659C24.2405 23.3295 23.8769 23.2083 23.4602 23.1023L22.1364 22.7614C21.178 22.5152 20.4205 22.142 19.8636 21.642C19.3106 21.1383 19.0341 20.4697 19.0341 19.6364C19.0341 18.9508 19.2197 18.3504 19.5909 17.8352C19.9659 17.3201 20.4754 16.9205 21.1193 16.6364C21.7633 16.3485 22.4924 16.2045 23.3068 16.2045C24.1326 16.2045 24.8561 16.3485 25.4773 16.6364C26.1023 16.9205 26.5928 17.3163 26.9489 17.8239C27.3049 18.3277 27.4886 18.9072 27.5 19.5625H25.4716ZM29.4474 28V19.2727H31.5043V28H29.4474ZM30.4815 18.0341C30.1558 18.0341 29.8755 17.9261 29.6406 17.7102C29.4058 17.4905 29.2884 17.2273 29.2884 16.9205C29.2884 16.6098 29.4058 16.3466 29.6406 16.1307C29.8755 15.911 30.1558 15.8011 30.4815 15.8011C30.8111 15.8011 31.0914 15.911 31.3224 16.1307C31.5573 16.3466 31.6747 16.6098 31.6747 16.9205C31.6747 17.2273 31.5573 17.4905 31.3224 17.7102C31.0914 17.9261 30.8111 18.0341 30.4815 18.0341ZM37.4148 31.4545C36.6761 31.4545 36.0417 31.3542 35.5114 31.1534C34.9811 30.9564 34.5549 30.6913 34.233 30.358C33.911 30.0246 33.6875 29.6553 33.5625 29.25L35.4148 28.8011C35.4981 28.9716 35.6193 29.1402 35.7784 29.3068C35.9375 29.4773 36.1515 29.6174 36.4205 29.7273C36.6932 29.8409 37.036 29.8977 37.4489 29.8977C38.0322 29.8977 38.5152 29.7557 38.8977 29.4716C39.2803 29.1913 39.4716 28.7292 39.4716 28.0852V26.4318H39.3693C39.2633 26.6439 39.108 26.8617 38.9034 27.0852C38.7027 27.3087 38.4356 27.4962 38.1023 27.6477C37.7727 27.7992 37.358 27.875 36.858 27.875C36.1875 27.875 35.5795 27.7178 35.0341 27.4034C34.4924 27.0852 34.0606 26.6117 33.7386 25.983C33.4205 25.3504 33.2614 24.5587 33.2614 23.608C33.2614 22.6496 33.4205 21.8409 33.7386 21.1818C34.0606 20.5189 34.4943 20.017 35.0398 19.6761C35.5852 19.3314 36.1932 19.1591 36.8636 19.1591C37.375 19.1591 37.7955 19.2462 38.125 19.4205C38.4583 19.5909 38.7235 19.7973 38.9205 20.0398C39.1174 20.2784 39.267 20.5038 39.3693 20.7159H39.483V19.2727H41.5114V28.142C41.5114 28.8883 41.3333 29.5057 40.9773 29.9943C40.6212 30.483 40.1345 30.8485 39.517 31.0909C38.8996 31.3333 38.1989 31.4545 37.4148 31.4545ZM37.4318 26.2614C37.8674 26.2614 38.2386 26.1553 38.5455 25.9432C38.8523 25.7311 39.0852 25.4261 39.2443 25.0284C39.4034 24.6307 39.483 24.1534 39.483 23.5966C39.483 23.0473 39.4034 22.5663 39.2443 22.1534C39.089 21.7405 38.858 21.4205 38.5511 21.1932C38.2481 20.9621 37.875 20.8466 37.4318 20.8466C36.9735 20.8466 36.5909 20.9659 36.2841 21.2045C35.9773 21.4432 35.7462 21.7708 35.5909 22.1875C35.4356 22.6004 35.358 23.0701 35.358 23.5966C35.358 24.1307 35.4356 24.5985 35.5909 25C35.75 25.3977 35.983 25.7083 36.2898 25.9318C36.6004 26.1515 36.9811 26.2614 37.4318 26.2614ZM45.6761 22.8864V28H43.6193V19.2727H45.5852V20.7557H45.6875C45.8883 20.267 46.2083 19.8788 46.6477 19.5909C47.0909 19.303 47.6383 19.1591 48.2898 19.1591C48.892 19.1591 49.4167 19.2879 49.8636 19.5455C50.3144 19.803 50.6629 20.1761 50.9091 20.6648C51.1591 21.1534 51.2822 21.7462 51.2784 22.4432V28H49.2216V22.7614C49.2216 22.178 49.0701 21.7216 48.767 21.392C48.4678 21.0625 48.053 20.8977 47.5227 20.8977C47.1629 20.8977 46.8428 20.9773 46.5625 21.1364C46.286 21.2917 46.0682 21.517 45.9091 21.8125C45.7538 22.108 45.6761 22.4659 45.6761 22.8864ZM62.9006 24.3295V19.2727H64.9574V28H62.9631V26.4489H62.8722C62.6752 26.9375 62.3513 27.3371 61.9006 27.6477C61.4536 27.9583 60.9025 28.1136 60.2472 28.1136C59.6752 28.1136 59.1695 27.9867 58.7301 27.733C58.2945 27.4754 57.9536 27.1023 57.7074 26.6136C57.4612 26.1212 57.3381 25.5265 57.3381 24.8295V19.2727H59.3949V24.5114C59.3949 25.0644 59.5464 25.5038 59.8494 25.8295C60.1525 26.1553 60.5502 26.3182 61.0426 26.3182C61.3456 26.3182 61.6392 26.2443 61.9233 26.0966C62.2074 25.9489 62.4403 25.7292 62.6222 25.4375C62.8078 25.142 62.9006 24.7727 62.9006 24.3295ZM67.0724 31.2727V19.2727H69.0952V20.7159H69.2145C69.3205 20.5038 69.4702 20.2784 69.6634 20.0398C69.8565 19.7973 70.1179 19.5909 70.4474 19.4205C70.777 19.2462 71.1974 19.1591 71.7088 19.1591C72.383 19.1591 72.991 19.3314 73.5327 19.6761C74.0781 20.017 74.5099 20.5227 74.8281 21.1932C75.1501 21.8598 75.3111 22.678 75.3111 23.6477C75.3111 24.6061 75.1539 25.4205 74.8395 26.0909C74.5251 26.7614 74.0971 27.2727 73.5554 27.625C73.0137 27.9773 72.4001 28.1534 71.7145 28.1534C71.2145 28.1534 70.7997 28.0701 70.4702 27.9034C70.1406 27.7367 69.8755 27.536 69.6747 27.3011C69.4777 27.0625 69.3243 26.8371 69.2145 26.625H69.1293V31.2727H67.0724ZM69.0895 23.6364C69.0895 24.2008 69.169 24.6951 69.3281 25.1193C69.491 25.5436 69.724 25.875 70.027 26.1136C70.3338 26.3485 70.705 26.4659 71.1406 26.4659C71.5952 26.4659 71.9759 26.3447 72.2827 26.1023C72.5895 25.8561 72.8205 25.5208 72.9759 25.0966C73.1349 24.6686 73.2145 24.1818 73.2145 23.6364C73.2145 23.0947 73.1368 22.6136 72.9815 22.1932C72.8262 21.7727 72.5952 21.4432 72.2884 21.2045C71.9815 20.9659 71.599 20.8466 71.1406 20.8466C70.7012 20.8466 70.3281 20.9621 70.0213 21.1932C69.7145 21.4242 69.4815 21.7481 69.3224 22.1648C69.1671 22.5814 69.0895 23.072 69.0895 23.6364Z" fill="black"/>
</svg>
