<svg width="66" height="66" viewBox="0 0 66 66" fill="none" xmlns="http://www.w3.org/2000/svg">
<rect x="5" y="5" width="56" height="56" rx="28" fill="#E4D3FF"/>
<rect x="5" y="5" width="56" height="56" rx="28" stroke="#101014" stroke-width="10"/>
<path d="M24.8335 24.8214C24.8335 23.6884 24.8335 23.1219 25.0697 22.8096C25.2755 22.5375 25.5901 22.3692 25.9306 22.3489C26.3215 22.3255 26.7929 22.6398 27.7356 23.2683L40.0038 31.447C40.7827 31.9663 41.1722 32.226 41.3079 32.5533C41.4266 32.8394 41.4266 33.161 41.3079 33.4471C41.1722 33.7744 40.7827 34.034 40.0038 34.5534L27.7356 42.7321C26.7929 43.3606 26.3215 43.6749 25.9306 43.6515C25.5901 43.6312 25.2755 43.4628 25.0697 43.1908C24.8335 42.8785 24.8335 42.312 24.8335 41.179V24.8214Z" stroke="#AE7AFF" stroke-width="2" stroke-linecap="round" stroke-linejoin="round"/>
</svg>
